<?xml version="1.0" encoding="UTF-8"?>
<svg id="Layer_1" data-name="Layer 1" xmlns="http://www.w3.org/2000/svg" viewBox="0 0 425.92 542.44">
  <defs>
    <style>
      .cls-1 {
        fill: #fe3339;
      }

      .cls-1, .cls-2 {
        stroke-width: 0px;
      }

      .cls-2 {
        fill: #ff343a;
      }
    </style>
  </defs>
  <path class="cls-2" d="M124.43,0v538.69c-2.17,0-4.11,0-6.05,0-37.33,0-74.67-.1-112,.12-5.08.03-6.37-1.34-6.36-6.4C.15,386.91.15,241.4,0,95.89c0-5.6,1.71-8.85,6.35-12.11C40.4,59.87,74.2,35.58,108.09,11.43c5.12-3.65,10.3-7.21,16.33-11.43Z"/>
  <path class="cls-1" d="M156.73,370.37c29.7-27.27,59.1-54.25,88.99-81.69,60.1,56.22,119.87,112.13,180.21,168.57-30.57,28.36-60.87,56.47-91.83,85.19-59.16-57.39-118.01-114.48-177.37-172.07Z"/>
  <path class="cls-2" d="M412.73,105.67c-56.82,53.56-113.26,106.76-170.13,160.36-29.06-27.43-57.79-54.55-86.91-82.03,56.91-52.57,113.47-104.83,170.32-157.34,29.03,26.45,57.63,52.52,86.71,79.01Z"/>
</svg>